<?xml version="1.0" encoding="UTF-8" standalone="no"?><!DOCTYPE svg PUBLIC "-//W3C//DTD SVG 1.1//EN" "http://www.w3.org/Graphics/SVG/1.1/DTD/svg11.dtd"><svg width="100%" height="100%" viewBox="0 0 300 300" version="1.1" xmlns="http://www.w3.org/2000/svg" xmlns:xlink="http://www.w3.org/1999/xlink" xml:space="preserve" xmlns:serif="http://www.serif.com/" style="fill-rule:evenodd;clip-rule:evenodd;stroke-linecap:round;stroke-linejoin:round;"><path d="M173.913,134.783l-19.565,-0l-0,30.434l19.565,0m73.913,-30.434l-19.565,-0l-0,30.434l19.565,0m-6.522,-15.217l-13.043,0m-60.87,0l-13.043,0m110.869,15.217l0,-30.434l23.913,30.434l0,-30.434m-241.304,23.26l23.913,15.87l23.913,-15.87l0,-16.086l-23.913,-15.87l-23.913,15.87l0,16.086Zm47.826,0l-23.913,-16.086l-23.913,16.086m0,-16.086l23.913,15.869l23.913,-15.869m-23.913,-15.87l0,15.87m0,16.086l0,15.87m119.565,-21.739l13.044,-0c4.782,-0 8.695,-3.913 8.695,-8.696c0,-4.782 -3.913,-8.695 -8.695,-8.695l-13.044,-0l0,30.434m-158.695,-26.087c-2.826,-2.826 -6.522,-4.347 -10.87,-4.347c-8.696,-0 -15.217,6.521 -15.217,15.217c-0,8.696 6.521,15.217 15.217,15.217c4.348,0 8.044,-1.739 10.87,-4.347m106.521,-10.87c0,8.696 -6.521,15.217 -15.217,15.217l-10.87,0l0,-30.434l10.87,-0c8.696,-0 15.217,6.521 15.217,15.217Z" style="fill:none;fill-rule:nonzero;stroke:#fff;stroke-width:5px;"/></svg>