<?xml version="1.0" encoding="UTF-8" standalone="no"?><!DOCTYPE svg PUBLIC "-//W3C//DTD SVG 1.1//EN" "http://www.w3.org/Graphics/SVG/1.1/DTD/svg11.dtd"><svg width="100%" height="100%" viewBox="0 0 300 300" version="1.1" xmlns="http://www.w3.org/2000/svg" xmlns:xlink="http://www.w3.org/1999/xlink" xml:space="preserve" xmlns:serif="http://www.serif.com/" style="fill-rule:evenodd;clip-rule:evenodd;stroke-linejoin:round;stroke-miterlimit:2;"><g><path d="M93.677,126.971c-1.101,-4.116 -4.342,-7.358 -8.459,-8.458c-7.462,-2 -37.38,-2 -37.38,-2c-0,0 -29.919,0 -37.381,2c-4.116,1.1 -7.358,4.342 -8.458,8.458c-1.999,7.462 -1.999,23.029 -1.999,23.029c-0,0 -0,15.568 1.999,23.029c1.1,4.116 4.342,7.358 8.458,8.459c7.462,1.999 37.381,1.999 37.381,1.999c-0,-0 29.918,-0 37.38,-1.999c4.117,-1.101 7.358,-4.343 8.459,-8.459c1.999,-7.461 1.999,-23.029 1.999,-23.029c0,0 0,-15.567 -1.999,-23.029Z" style="fill:#ed1f24;fill-rule:nonzero;"/><path d="M38.27,164.352l24.857,-14.352l-24.857,-14.351l-0,28.703Z" style="fill:#fff;fill-rule:nonzero;"/><path d="M149.479,170.873c0.524,-1.367 0.787,-3.602 0.787,-6.704l-0,-13.069c-0,-3.01 -0.263,-5.211 -0.787,-6.602c-0.524,-1.391 -1.448,-2.087 -2.771,-2.087c-1.277,-0 -2.179,0.696 -2.702,2.087c-0.525,1.391 -0.787,3.592 -0.787,6.602l-0,13.069c-0,3.102 0.25,5.337 0.753,6.704c0.501,1.369 1.413,2.052 2.736,2.052c1.323,0 2.247,-0.683 2.771,-2.052Zm-10.604,6.569c-1.894,-1.276 -3.24,-3.261 -4.037,-5.953c-0.799,-2.69 -1.198,-6.271 -1.198,-10.742l0,-6.089c0,-4.516 0.456,-8.143 1.368,-10.879c0.912,-2.736 2.337,-4.732 4.277,-5.987c1.938,-1.253 4.481,-1.881 7.629,-1.881c3.101,0 5.587,0.639 7.457,1.916c1.87,1.277 3.239,3.273 4.106,5.986c0.865,2.715 1.299,6.329 1.299,10.845l0,6.089c0,4.471 -0.422,8.063 -1.265,10.777c-0.845,2.714 -2.213,4.698 -4.106,5.952c-1.893,1.254 -4.458,1.881 -7.697,1.881c-3.33,0 -5.942,-0.638 -7.833,-1.915Z" style="fill:#fff;fill-rule:nonzero;"/><path d="M285.392,143.194c-0.478,0.594 -0.799,1.563 -0.958,2.908c-0.161,1.346 -0.239,3.387 -0.239,6.124l0,3.011l6.91,-0l-0,-3.011c-0,-2.691 -0.092,-4.732 -0.274,-6.124c-0.182,-1.391 -0.512,-2.371 -0.991,-2.942c-0.48,-0.57 -1.221,-0.855 -2.224,-0.855c-1.004,0 -1.746,0.297 -2.224,0.889Zm-1.197,17.653l0,2.121c0,2.692 0.078,4.71 0.239,6.055c0.159,1.346 0.489,2.327 0.992,2.943c0.502,0.615 1.276,0.924 2.327,0.924c1.413,-0 2.383,-0.548 2.907,-1.643c0.524,-1.095 0.809,-2.919 0.855,-5.473l8.142,0.478c0.046,0.367 0.069,0.868 0.069,1.505c-0,3.878 -1.06,6.775 -3.182,8.69c-2.12,1.916 -5.12,2.874 -8.997,2.874c-4.652,0 -7.914,-1.459 -9.784,-4.379c-1.871,-2.918 -2.806,-7.434 -2.806,-13.547l0,-7.322c0,-6.294 0.97,-10.889 2.909,-13.786c1.938,-2.897 5.257,-4.345 9.955,-4.345c3.238,-0 5.724,0.593 7.458,1.779c1.732,1.187 2.953,3.033 3.66,5.542c0.707,2.509 1.061,5.976 1.061,10.4l-0,7.184l-15.805,0Z" style="fill:#fff;fill-rule:nonzero;"/><path d="M115.883,160.061l-10.743,-38.794l9.374,0l3.763,17.584c0.958,4.335 1.665,8.029 2.121,11.084l0.274,0c0.319,-2.189 1.026,-5.86 2.121,-11.016l3.9,-17.652l9.373,0l-10.878,38.794l-0,18.612l-9.305,-0l-0,-18.612Z" style="fill:#fff;fill-rule:nonzero;"/><path d="M190.263,136.732l-0,41.941l-7.39,-0l-0.821,-5.131l-0.205,0c-2.008,3.877 -5.018,5.815 -9.032,5.815c-2.782,0 -4.835,-0.912 -6.158,-2.736c-1.323,-1.824 -1.984,-4.676 -1.984,-8.552l0,-31.337l9.442,-0l0,30.788c0,1.872 0.206,3.206 0.616,4.003c0.411,0.799 1.095,1.198 2.053,1.198c0.821,-0 1.608,-0.251 2.36,-0.753c0.753,-0.502 1.311,-1.14 1.677,-1.916l-0,-33.32l9.442,-0Z" style="fill:#fff;fill-rule:nonzero;"/><path d="M238.694,136.732l0,41.941l-7.389,-0l-0.822,-5.131l-0.204,0c-2.009,3.877 -5.019,5.815 -9.032,5.815c-2.783,0 -4.835,-0.912 -6.158,-2.736c-1.323,-1.824 -1.984,-4.676 -1.984,-8.552l-0,-31.337l9.442,-0l-0,30.788c-0,1.872 0.205,3.206 0.615,4.003c0.411,0.799 1.096,1.198 2.053,1.198c0.822,-0 1.608,-0.251 2.361,-0.753c0.752,-0.502 1.311,-1.14 1.676,-1.916l0,-33.32l9.442,-0Z" style="fill:#fff;fill-rule:nonzero;"/><path d="M215.92,128.863l-9.374,0l0,49.81l-9.236,-0l-0,-49.81l-9.374,0l0,-7.595l27.984,-0l-0,7.595Z" style="fill:#fff;fill-rule:nonzero;"/><path d="M261.289,160.544c0,3.057 -0.127,5.452 -0.377,7.184c-0.25,1.734 -0.673,2.966 -1.266,3.695c-0.593,0.73 -1.392,1.094 -2.394,1.094c-0.776,0 -1.495,-0.181 -2.155,-0.547c-0.663,-0.365 -1.197,-0.912 -1.609,-1.642l0,-23.81c0.319,-1.14 0.867,-2.075 1.643,-2.805c0.775,-0.729 1.618,-1.095 2.531,-1.095c0.958,-0 1.699,0.376 2.224,1.128c0.524,0.753 0.889,2.019 1.095,3.799c0.205,1.778 0.308,4.309 0.308,7.593l0,5.406Zm8.655,-17.108c-0.571,-2.645 -1.495,-4.561 -2.772,-5.747c-1.277,-1.186 -3.033,-1.779 -5.268,-1.779c-1.733,0 -3.352,0.491 -4.857,1.471c-1.505,0.981 -2.669,2.269 -3.49,3.866l-0.069,-0l0,-22.1l-9.099,0l0,59.525l7.799,0l0.959,-3.968l0.204,0c0.73,1.414 1.824,2.532 3.285,3.353c1.459,0.821 3.079,1.232 4.858,1.232c3.192,-0 5.541,-1.472 7.047,-4.414c1.505,-2.942 2.258,-7.537 2.258,-13.787l-0,-6.636c-0,-4.697 -0.286,-8.37 -0.855,-11.016Z" style="fill:#fff;fill-rule:nonzero;"/></g></svg>